<svg width="70" height="70" viewBox="0 0 70 70" fill="none" xmlns="http://www.w3.org/2000/svg">
<path d="M69.2551 20.3289C69.0545 20.044 68.7884 19.8114 68.4791 19.6507C68.1698 19.4901 67.8265 19.4062 67.4779 19.4059H21.0526L17.5384 7.28719C16.1603 2.51516 12.8855 2 11.5424 2H2.17226C0.97125 2 0 2.97234 0 4.17219C0 5.37203 0.972344 6.34431 2.17219 6.34431H11.5413C11.8377 6.34431 12.7422 6.34431 13.3591 8.47603L25.4484 52.9052C25.7108 53.8426 26.5651 54.49 27.5395 54.49H57.0686C57.9852 54.49 58.8033 53.9158 59.1129 53.0528L69.521 22.313C69.7605 21.6469 69.661 20.9053 69.2552 20.3289H69.2551ZM55.5399 50.1469H29.1883L22.2736 23.7514H64.3895L55.5399 50.1469ZM51.2317 58.8925C48.2108 58.8925 45.763 61.3403 45.763 64.3612C45.763 67.3822 48.2108 69.83 51.2317 69.83C54.2527 69.83 56.7005 67.3822 56.7005 64.3612C56.7005 61.3403 54.2527 58.8925 51.2317 58.8925ZM31.5442 58.8925C28.5233 58.8925 26.0755 61.3403 26.0755 64.3612C26.0755 67.3822 28.5233 69.83 31.5442 69.83C34.5652 69.83 37.013 67.3822 37.013 64.3612C37.013 61.3403 34.5652 58.8925 31.5442 58.8925Z" fill="white"/>
</svg>
