<svg width="85" height="85" viewBox="0 0 85 85" fill="none" xmlns="http://www.w3.org/2000/svg">
<path d="M56.6668 35.4167C56.6668 39.1739 55.1743 42.7772 52.5175 45.434C49.8607 48.0908 46.2574 49.5833 42.5002 49.5833C38.7429 49.5833 35.1396 48.0908 32.4828 45.434C29.8261 42.7772 28.3335 39.1739 28.3335 35.4167C28.3335 31.6594 29.8261 28.0561 32.4828 25.3993C35.1396 22.7426 38.7429 21.25 42.5002 21.25C46.2574 21.25 49.8607 22.7426 52.5175 25.3993C55.1743 28.0561 56.6668 31.6594 56.6668 35.4167Z" fill="white"/>
<path fill-rule="evenodd" clip-rule="evenodd" d="M41.0552 77.8883C22.1657 77.1304 7.0835 61.5754 7.0835 42.5C7.0835 22.9394 22.9395 7.08333 42.5002 7.08333C62.0608 7.08333 77.9168 22.9394 77.9168 42.5C77.9168 62.0606 62.0608 77.9167 42.5002 77.9167C42.3384 77.9177 42.1767 77.9177 42.015 77.9167C41.6944 77.9167 41.3739 77.906 41.0552 77.8883ZM19.7733 64.8479C19.5085 64.0875 19.4184 63.2771 19.5096 62.4771C19.6008 61.677 19.871 60.9078 20.3002 60.2265C20.7295 59.5452 21.3066 58.9693 21.9888 58.5416C22.6711 58.1138 23.4409 57.8452 24.2411 57.7557C38.0465 56.2275 47.0388 56.3656 60.7769 57.7876C61.5782 57.871 62.35 58.1363 63.0333 58.563C63.7166 58.9898 64.2935 59.5669 64.7201 60.2503C65.1467 60.9337 65.4117 61.7055 65.495 62.5069C65.5782 63.3082 65.4775 64.1179 65.2005 64.8745C71.0884 58.9172 74.3857 50.8759 74.3752 42.5C74.3752 24.8961 60.104 10.625 42.5002 10.625C24.8963 10.625 10.6252 24.8961 10.6252 42.5C10.6252 51.2054 14.1155 59.0962 19.7733 64.8479Z" fill="white"/>
</svg>
